<svg xmlns="http://www.w3.org/2000/svg" version="1.1" xmlns:xlink="http://www.w3.org/1999/xlink" xmlns:svgjs="http://svgjs.dev/svgjs" width="2000" height="1247" viewBox="0 0 2000 1247"><g transform="matrix(1,0,0,1,-1.2121212121212466,0.5048582995951847)"><svg viewBox="0 0 396 247" data-background-color="#000000" preserveAspectRatio="xMidYMid meet" height="1247" width="2000" xmlns="http://www.w3.org/2000/svg" xmlns:xlink="http://www.w3.org/1999/xlink"><g id="tight-bounds" transform="matrix(1,0,0,1,0.2400000000000091,-0.09999999999999432)"><svg viewBox="0 0 395.52 247.2" height="247.2" width="395.52"><g><svg></svg></g><g><svg viewBox="0 0 395.52 247.2" height="247.2" width="395.52"><g transform="matrix(1,0,0,1,75.54432,65.20100646896972)"><svg viewBox="0 0 244.43135999999998 116.79798706206053" height="116.79798706206053" width="244.43135999999998"><g><svg viewBox="0 0 244.43135999999998 116.79798706206053" height="116.79798706206053" width="244.43135999999998"><g><svg viewBox="0 0 244.43135999999998 116.79798706206053" height="116.79798706206053" width="244.43135999999998"><g id="textblocktransform"><svg viewBox="0 0 244.43135999999998 116.79798706206053" height="116.79798706206053" width="244.43135999999998" id="textblock"><g><svg viewBox="0 0 244.43135999999998 116.79798706206053" height="116.79798706206053" width="244.43135999999998"><g transform="matrix(1,0,0,1,0,0)"><svg width="244.43135999999998" viewBox="0.32 -38.16 79.85000000000001 38.16" height="116.79798706206053" data-palette-color="url(#271a23da-a432-4ea5-ad1f-059055cd0785)"></svg></g></svg></g></svg></g></svg></g></svg></g></svg></g><g><path d="M245.816 0c68.262 0 123.6 55.338 123.6 123.6 0 68.262-55.338 123.6-123.6 123.6-41.317 0-77.899-20.273-100.342-51.414l6.568 0c21.637 28.067 55.594 46.148 93.774 46.148 65.354 0 118.334-52.98 118.333-118.334 0-65.354-52.98-118.334-118.333-118.334-38.18 0-72.136 18.081-93.774 46.148l-6.568 0c22.442-31.141 59.025-51.414 100.342-51.414z" fill="#9ed898" stroke="transparent" data-fill-palette-color="tertiary"></path></g></svg></g><defs></defs><mask id="808ac409-bb93-4b40-9d10-8b83a33fe35b"><g id="SvgjsG3565"><svg viewBox="0 0 395.52 247.2" height="247.2" width="395.52"><g><svg></svg></g><g><svg viewBox="0 0 395.52 247.2" height="247.2" width="395.52"><g transform="matrix(1,0,0,1,75.54432,65.20100646896972)"><svg viewBox="0 0 244.43135999999998 116.79798706206053" height="116.79798706206053" width="244.43135999999998"><g><svg viewBox="0 0 244.43135999999998 116.79798706206053" height="116.79798706206053" width="244.43135999999998"><g><svg viewBox="0 0 244.43135999999998 116.79798706206053" height="116.79798706206053" width="244.43135999999998"><g id="SvgjsG3564"><svg viewBox="0 0 244.43135999999998 116.79798706206053" height="116.79798706206053" width="244.43135999999998" id="SvgjsSvg3563"><g><svg viewBox="0 0 244.43135999999998 116.79798706206053" height="116.79798706206053" width="244.43135999999998"><g transform="matrix(1,0,0,1,0,0)"><svg width="244.43135999999998" viewBox="0.32 -38.16 79.85000000000001 38.16" height="116.79798706206053" data-palette-color="url(#271a23da-a432-4ea5-ad1f-059055cd0785)"><path d="M17.04 0L0.32-38.16 8.89-38.16 20.87-9.06 32.86-38.16 41.43-38.16 24.71 0 17.04 0ZM47.17 0L47.17-38.16 79.66-38.16 79.66-31.37 54.9-31.37 54.9-23.75 76.83-23.75 76.83-17.38 54.9-17.38 54.9-6.76 80.17-6.76 80.17 0 47.17 0Z" opacity="1" transform="matrix(1,0,0,1,0,0)" fill="white" class="wordmark-text-0" id="SvgjsPath3562"></path></svg></g></svg></g></svg></g></svg></g></svg></g></svg></g><g><path d="M245.816 0c68.262 0 123.6 55.338 123.6 123.6 0 68.262-55.338 123.6-123.6 123.6-41.317 0-77.899-20.273-100.342-51.414l6.568 0c21.637 28.067 55.594 46.148 93.774 46.148 65.354 0 118.334-52.98 118.333-118.334 0-65.354-52.98-118.334-118.333-118.334-38.18 0-72.136 18.081-93.774 46.148l-6.568 0c22.442-31.141 59.025-51.414 100.342-51.414z" fill="black" stroke="transparent"></path></g></svg></g><defs><mask></mask></defs></svg><rect width="395.52" height="247.2" fill="black" stroke="none" visibility="hidden"></rect></g></mask><linearGradient x1="0" x2="1" y1="0.578" y2="0.595" id="271a23da-a432-4ea5-ad1f-059055cd0785"><stop stop-color="#6ee2f5" offset="0"></stop><stop stop-color="#6454f0" offset="1"></stop></linearGradient><rect width="395.52" height="247.2" fill="url(#271a23da-a432-4ea5-ad1f-059055cd0785)" mask="url(#808ac409-bb93-4b40-9d10-8b83a33fe35b)" data-fill-palette-color="primary"></rect></svg><rect width="395.52" height="247.2" fill="none" stroke="none" visibility="hidden"></rect></g></svg></g></svg>